<svg aria-hidden="true" style="position: absolute; width: 0; height: 0; overflow: hidden;" version="1.1" xmlns="http://www.w3.org/2000/svg" xmlns:xlink="http://www.w3.org/1999/xlink">
<defs>
<symbol id="icon-menu" viewBox="0 0 32 32">
<path d="M2 6h28v6h-28zM2 14h28v6h-28zM2 22h28v6h-28z"></path>
</symbol>
<symbol id="icon-email" viewBox="0 0 32 32">
<path d="M15.887 17.127l14.787-11.949c-0.425-0.301-0.951-0.451-1.526-0.451h-26.521c-0.575 0-1.101 0.15-1.526 0.451l14.787 11.949z"></path>
<path d="M18.94 15.95l12.51 10.095c0.325-0.451 0.55-1.002 0.55-1.578v-17.034c0-0.601-0.25-1.127-0.55-1.578l-12.51 10.095z"></path>
<path d="M0.45 5.855c-0.325 0.451-0.45 1.002-0.45 1.578v17.034c0 0.601 0.125 1.127 0.45 1.578l12.46-10.095-12.46-10.095z"></path>
<path d="M18.139 16.601l-1.927 1.578c-0.1 0.075-0.2 0.1-0.325 0.1s-0.225-0.025-0.325-0.1l-1.927-1.578-12.535 10.17c0.425 0.301 0.951 0.501 1.526 0.501h26.521c0.575 0 1.101-0.2 1.526-0.501l-12.535-10.17z"></path>
</symbol>
<symbol id="icon-giftbox" viewBox="0 0 32 32">
<path d="M9.293 10.71c-0.173 0-0.337 0.013-0.502 0.023l1.251 21.267h2.093l-0.828-21.118c-0.662-0.092-1.335-0.172-2.013-0.172z"></path>
<path d="M20.511 32h2.093l1.256-21.353h-2.512z"></path>
<path d="M16.463 10.709c-0.050 0.023-0.104 0.048-0.163 0.074l-0.034 0.016-0.766 0.279c-0.315 0.078-0.676 0.1-1.051 0.105l0.305 20.816h3.14l0.309-21.124c-0.219 0.018-0.446 0.041-0.638 0.041-0.324-0.001-0.75-0.028-1.102-0.209z"></path>
<path d="M26.020 8.057c-3.313-0.58-5.874 1.628-8.397 1.591 0.78-0.44 1.668-1.416 2.363-2.693 1.117-2.049 1.315-4.092 0.445-4.566-0.761-0.416-2.093 0.515-3.161 2.129-0.069-0.206-0.131-0.411-0.216-0.618-1.159-2.758-3.428-4.435-5.068-3.745-1.638 0.688-2.027 3.482-0.868 6.241 0.59 1.403 1.467 2.52 2.402 3.194-3.237-1.323-6.219-4.907-10.266 0.153l0.55 2.983c4.004-4.985 9.224-1.142 12.050-2.43 0.285-0.129 0.486-0.214 0.587-0.278 0.052 0 0.093 0.005 0.146 0.002 0.759 0.899 5.312-0.828 8.378-0.039 1.516 0.389 1.076 3.214 0.819 4.706l2.355-1.609c1.61-2.864-0.279-4.701-2.118-5.023zM15.901 9.467c-0.123 0.052-0.252 0.079-0.384 0.090-0.008 0.001-0.016 0.002-0.024 0.005-0.983 0.065-2.167-0.941-2.811-2.473-0.736-1.752-0.489-3.527 0.553-3.964s2.483 0.627 3.219 2.38c0.043 0.102 0.070 0.201 0.105 0.303-0.683 1.473-0.875 2.854-0.525 3.576-0.046 0.025-0.083 0.062-0.133 0.083zM16.433 9.025c-0.22-0.471-0.085-1.372 0.369-2.324 0.166 0.951 0.029 1.8-0.369 2.324zM17.116 9.337c0.594-0.887 0.75-2.291 0.428-3.826 0.607-0.749 1.277-1.14 1.687-0.916 0.551 0.3 0.427 1.599-0.283 2.9-0.545 1-1.274 1.704-1.833 1.841z"></path>
</symbol>
<symbol id="icon-logo" viewBox="0 0 32 32">
<path d="M16.001 2.506c-7.453 0-13.494 6.041-13.494 13.494 0 5.538 3.339 10.291 8.111 12.37l0.176-3.406c0-2.71-2.003-1.842-2.003-3.737 0-1.063 0.033-3.276 0.033-4.938 0-4.429 1.881-8.714 2.343-9.67 0.465-0.955 1.558-1.997 1.57-0.994 0 1.455 0.062 18.375 0.062 18.375h-0.003l0.207 5.147c0.966 0.221 1.966 0.347 2.998 0.347 0.566 0 1.118-0.046 1.666-0.113l0.446-8.649c-1.102-0.241-2.041-0.942-2.63-1.822-0.73-1.094 0.561-10.764 0.561-10.764h0.841v9.076h0.834v-9.076h0.911v9.076h0.831v-9.076h0.946v9.076h0.833v-9.076h0.645c0 0 1.29 9.67 0.561 10.764-0.584 0.871-1.514 1.57-2.602 1.818-0.020 0.006-0.037 0.014-0.037 0.014l0.422 8.068c5.379-1.774 9.267-6.834 9.267-12.809-0.001-7.453-6.042-13.494-13.494-13.494z"></path>
<path d="M16.001 0c-8.822 0-16.001 7.178-16.001 16 0 8.82 7.179 16 16.001 16s15.999-7.18 15.999-16c-0-8.822-7.178-16-15.999-16zM16.001 30.807c-8.165 0-14.808-6.643-14.808-14.807s6.643-14.808 14.808-14.808c8.164 0 14.808 6.643 14.808 14.808s-6.644 14.807-14.808 14.807z"></path>
</symbol>
<symbol id="icon-online-shopping" viewBox="0 0 32 32">
<path d="M1.184 3.846h3.394l4.834 17.481c0.138 0.513 0.612 0.868 1.144 0.868h14.857c0.474 0 0.888-0.276 1.085-0.71l5.406-12.43c0.158-0.375 0.118-0.789-0.099-1.125s-0.592-0.533-0.987-0.533h-16.416c-0.651 0-1.184 0.533-1.184 1.184s0.533 1.184 1.184 1.184h14.6l-4.38 10.062h-13.18l-4.834-17.481c-0.138-0.513-0.612-0.868-1.144-0.868h-4.282c-0.651 0-1.184 0.533-1.184 1.184s0.533 1.184 1.184 1.184z"></path>
<path d="M9.431 30.522c1.48 0 2.683-1.204 2.683-2.683s-1.204-2.683-2.683-2.683-2.683 1.203-2.683 2.683 1.204 2.683 2.683 2.683z"></path>
<path d="M26.202 30.522c0.059 0 0.138 0 0.197 0 0.71-0.059 1.361-0.375 1.835-0.927 0.474-0.533 0.691-1.223 0.651-1.953-0.099-1.46-1.381-2.585-2.861-2.486s-2.585 1.401-2.486 2.861c0.099 1.401 1.263 2.506 2.664 2.506z"></path>
</symbol>
<symbol id="icon-telephone" viewBox="0 0 32 32">
<path d="M31.931 24.794c-0.090-0.273-0.666-0.674-1.727-1.204-0.287-0.167-0.697-0.394-1.227-0.682s-1.012-0.553-1.443-0.796c-0.432-0.242-0.837-0.477-1.216-0.704-0.061-0.045-0.25-0.178-0.568-0.398s-0.587-0.383-0.807-0.489c-0.22-0.106-0.436-0.159-0.648-0.159-0.303 0-0.681 0.216-1.136 0.648s-0.871 0.901-1.25 1.409c-0.379 0.508-0.78 0.977-1.204 1.409s-0.773 0.648-1.046 0.648c-0.137 0-0.307-0.038-0.512-0.113s-0.36-0.141-0.466-0.193c-0.106-0.053-0.287-0.159-0.545-0.319s-0.402-0.246-0.432-0.262c-2.076-1.152-3.856-2.47-5.341-3.954s-2.803-3.265-3.954-5.341c-0.015-0.030-0.102-0.174-0.261-0.432s-0.265-0.439-0.318-0.546c-0.053-0.106-0.117-0.261-0.193-0.466s-0.114-0.375-0.114-0.511c0-0.273 0.216-0.621 0.648-1.046s0.902-0.826 1.409-1.204c0.508-0.379 0.977-0.795 1.409-1.25s0.648-0.833 0.648-1.136c0-0.212-0.053-0.428-0.159-0.648s-0.269-0.489-0.489-0.807c-0.22-0.318-0.352-0.507-0.398-0.568-0.227-0.378-0.462-0.784-0.704-1.216s-0.508-0.913-0.796-1.443c-0.288-0.53-0.515-0.939-0.682-1.227-0.53-1.060-0.931-1.636-1.204-1.727-0.106-0.045-0.265-0.068-0.477-0.068-0.409 0-0.943 0.076-1.602 0.227s-1.178 0.31-1.557 0.477c-0.758 0.318-1.561 1.242-2.409 2.772-0.773 1.424-1.159 2.833-1.159 4.227 0 0.409 0.026 0.806 0.080 1.193s0.148 0.822 0.284 1.307c0.136 0.485 0.246 0.845 0.329 1.079s0.238 0.655 0.466 1.261c0.227 0.606 0.364 0.977 0.409 1.113 0.53 1.485 1.159 2.811 1.886 3.977 1.196 1.939 2.829 3.943 4.897 6.012s4.072 3.701 6.011 4.898c1.167 0.727 2.493 1.356 3.977 1.886 0.136 0.045 0.507 0.181 1.113 0.409s1.027 0.383 1.261 0.466c0.235 0.083 0.595 0.193 1.079 0.33 0.485 0.137 0.921 0.231 1.307 0.285 0.387 0.052 0.784 0.079 1.193 0.079 1.394 0 2.803-0.387 4.227-1.159 1.53-0.848 2.454-1.651 2.772-2.41 0.167-0.378 0.326-0.897 0.477-1.557s0.227-1.193 0.227-1.602c0-0.213-0.022-0.372-0.068-0.479z"></path>
</symbol>
</defs>
</svg>
