<svg aria-hidden="true" style="position:absolute;width:0;height:0" xmlns="http://www.w3.org/2000/svg" overflow="hidden">
    <defs>
        <symbol id="burger" viewBox="0 0 32 32">
            <path fill="none" stroke="var(--color1, #d41443)" stroke-width="1.6" d="M0 6.4h32M0 16h32M0 25.6h32"/>
        </symbol>
        <symbol id="close" viewBox="0 0 32 32">
            <path fill="none" stroke="var(--color2, #fff)" stroke-width="2" d="M2.519 2l26.963 28M2 29.481L30 2.518"/>
        </symbol>
        <symbol id="facebook" viewBox="0 0 32 32">
            <path fill="var(--color2, #fff)" d="M22.143 15.972h-4.034v14.865h-6.112V15.972H9.09v-5.224h2.907V7.367c0-2.418 1.142-6.203 6.166-6.203l4.527.019v5.071h-3.285c-.539 0-1.296.271-1.296 1.424v3.075h4.567l-.534 5.219z"/>
        </symbol>
        <symbol id="telegram" viewBox="0 0 32 32">
            <path fill="var(--color2, #fff)" d="M12.613 19.671l-.491 6.444c.702 0 1.006-.282 1.371-.62l3.293-2.937 6.822 4.663c1.251.651 2.133.308 2.47-1.074l4.478-19.585.001-.001c.397-1.726-.669-2.401-1.888-1.978L2.346 13.989c-1.796.651-1.769 1.585-.305 2.009l6.73 1.954 15.632-9.129c.736-.455 1.404-.203.854.252L12.612 19.672z"/>
        </symbol>
        <symbol id="github" viewBox="0 0 32 32">
            <path fill="var(--color2, #fff)" d="M16 0C7.212 0 0 7.212 0 16c0 7.499 5.262 14.312 12.25 16v-5.293c-.692.152-1.33.156-2.034-.052-.946-.279-1.714-.909-2.284-1.869-.364-.613-1.008-1.278-1.68-1.23l-.165-1.868c1.453-.124 2.711.886 3.457 2.14.332.558.713.884 1.203 1.029.473.14.982.072 1.574-.137.149-1.186.692-1.63 1.102-2.255v-.001c-4.167-.622-5.828-2.832-6.488-4.578-.874-2.317-.405-5.212 1.14-7.041.03-.036.084-.129.063-.194-.708-2.139.155-3.909.187-4.097.817.242.95-.243 3.551 1.337l.449.27c.188.112.129.048.317.034A13.544 13.544 0 0116 7.723c1.136.015 2.273.178 3.404.484l.145.015c-.013-.002.04-.009.127-.062 3.248-1.968 3.132-1.324 4.003-1.608.032.188.883 1.987.182 4.099-.095.291 2.816 2.956 1.203 7.235-.659 1.746-2.32 3.957-6.487 4.578v.001c.534.814 1.176 1.247 1.173 2.927V32C26.738 30.312 32 23.499 32 16c0-8.788-7.212-16-16-16z"/>
        </symbol>
        <symbol id="home" viewBox="0 0 32 32">
            <path fill="var(--color3, #d31342)" d="M31.618 15.643c.553-.608.5-1.541-.119-2.082L17.863 1.63c-.619-.541-1.611-.53-2.217.026L1.964 14.198a1.446 1.446 0 00-.066 2.079l.343.357c.569.592 1.489.663 2.053.157l1.023-.916v13.406c0 .823.666 1.488 1.488 1.488h5.333c.822 0 1.488-.666 1.488-1.488v-9.379h6.803v9.379c-.012.822.576 1.488 1.398 1.488h5.652c.822 0 1.488-.666 1.488-1.488V16.064l.631.554c.349.307 1.078.061 1.631-.548l.388-.426z"/>
        </symbol>
    </defs>
    <symbol id="quotes" viewBox="0 0 43 32">
        <path fill="#e1e1e1" style="fill: var(--color1, #e1e1e1)" d="M32.014 0c1.929 0 3.75 0.52 5.464 1.561s3.107 2.537 4.179 4.488c1.029 1.951 1.543 4.249 1.543 6.894s-0.643 5.225-1.929 7.74c-0.429 0.911-1.2 2.081-2.314 3.512-1.157 1.431-2.229 2.667-3.214 3.707l-4.050 4.098-2.893-4.813c2.014-1.257 3.793-2.818 5.336-4.683 1.543-1.821 2.314-3.491 2.314-5.008 0-0.78-0.171-1.409-0.514-1.886-1.5 1.084-3.171 1.626-5.014 1.626-1.329 0-2.593-0.412-3.793-1.236-1.243-0.78-2.229-1.821-2.957-3.122-0.771-1.258-1.157-2.558-1.157-3.902 0-1.518 0.45-2.97 1.35-4.358 0.857-1.388 1.993-2.515 3.407-3.382 1.371-0.824 2.786-1.236 4.243-1.236zM8.936 0c1.929 0 3.75 0.52 5.464 1.561s3.107 2.537 4.179 4.488c1.029 1.951 1.543 4.249 1.543 6.894 0 1.864-0.236 3.534-0.707 5.008-0.471 1.518-1.286 3.1-2.443 4.748-1.114 1.561-2.164 2.862-3.15 3.902-0.986 1.084-2.7 2.884-5.143 5.398l-2.893-4.813c2.014-1.257 3.793-2.818 5.336-4.683 1.543-1.821 2.314-3.491 2.314-5.008 0-0.78-0.171-1.409-0.514-1.886-1.5 1.084-3.171 1.626-5.014 1.626-1.329 0-2.593-0.412-3.793-1.236-1.243-0.78-2.229-1.821-2.957-3.122-0.771-1.258-1.157-2.558-1.157-3.902 0-1.518 0.429-2.97 1.286-4.358s1.993-2.515 3.407-3.382c1.371-0.824 2.786-1.236 4.243-1.236z"></path>
    </symbol>
    <symbol id="arrow" viewBox="0 0 26 32">
        <path fill="none" stroke="#d41443" style="stroke: var(--color2, #d41443)" stroke-linejoin="round" stroke-linecap="round" stroke-miterlimit="4" stroke-width="6.4" d="M3.542 3.2l16.825 12.8-16.825 12.8"></path>
    </symbol>
    <symbol id="arrow-white" viewBox="0 0 19 32">
        <path fill="none" stroke="#fff" style="stroke: var(--color1, #fff)" stroke-linejoin="round" stroke-linecap="round" stroke-miterlimit="4" stroke-width="6.4" d="M3.2 3.2l11.553 12.8-11.553 12.8"></path>
    </symbol>
    
</svg>